# xmcd CD database file
#
# Track frame offsets:
#	150
#	14479
#	37943
#	55544
#	75786
#	96293
#	113919
#	131295
#	146841
#	161834
#
# Disc length: 2300 seconds
#
# Revision: 3
# Processed by: cddbd v1.5.2PL0 Copyright (c) Steve Scherf et al.
# Submitted via: CDex 1.70beta2
#
DISCID=7508fa0a
DTITLE=布谷文夫 - 悲しき夏バテ
DYEAR=1973
DGENRE=Blues
TTITLE0=五番外
TTITLE1=冷たい女
TTITLE2=深南部牛追唄
TTITLE3=夏バテ
TTITLE4=颱風13号
TTITLE5=ニューオリンズの町へ
TTITLE6=ホーボー・ブルース
TTITLE7=街のブルース
TTITLE8=朝めがさめて
TTITLE9=水たまり
EXTD=YEAR: 1973
EXTT0=
EXTT1=
EXTT2=
EXTT3=
EXTT4=
EXTT5=
EXTT6=
EXTT7=
EXTT8=
EXTT9=
PLAYORDER=
